<svg xmlns="http://www.w3.org/2000/svg" viewBox="0 0 128 128">
  <path fill="#252f3e" d="M38.089 77.466l-11.4 4.313s-1.066-.49-1.559-1.03c-.49-.54-.54-1.03-.54-1.03l9.451-3.576s1.068.49 1.559 1.03c.49.54.489 1.293.489 1.293"/>
  <path fill="#ff9900" d="M38.089 77.466c-.167-.656-.896-1.03-1.559-1.03h-18.82c-.663 0-1.392.374-1.559 1.03l-2.892 11.286c-.167.656.227 1.03.89 1.03h25.943c.663 0 1.057-.374.89-1.03z"/>
  <path fill="#252f3e" d="M45.984 77.466l-11.4 4.313s-1.066-.49-1.559-1.03c-.49-.54-.54-1.03-.54-1.03l9.451-3.576s1.068.49 1.559 1.03c.49.54.489 1.293.489 1.293"/>
  <path fill="#ff9900" d="M45.984 77.466c-.167-.656-.896-1.03-1.559-1.03h-18.82c-.663 0-1.392.374-1.559 1.03l-2.892 11.286c-.167.656.227 1.03.89 1.03h25.943c.663 0 1.057-.374.89-1.03z"/>
  <path fill="#252f3e" d="M53.88 77.466l-11.4 4.313s-1.066-.49-1.559-1.03c-.49-.54-.54-1.03-.54-1.03l9.451-3.576s1.068.49 1.559 1.03c.49.54.489 1.293.489 1.293"/>
  <path fill="#ff9900" d="M53.88 77.466c-.167-.656-.896-1.03-1.559-1.03h-18.82c-.663 0-1.392.374-1.559 1.03l-2.892 11.286c-.167.656.227 1.03.89 1.03h25.943c.663 0 1.057-.374.89-1.03z"/>
  <path fill="#252f3e" d="M64.09 70.486c-4.167 0-7.43 1.433-9.726 4.27-2.297 2.837-3.445 6.67-3.445 11.5 0 4.742 1.148 8.575 3.445 11.5 2.296 2.924 5.559 4.386 9.726 4.386 4.167 0 7.43-1.462 9.726-4.386 2.297-2.925 3.445-6.758 3.445-11.5 0-4.83-1.148-8.663-3.445-11.5-2.296-2.837-5.559-4.27-9.726-4.27zm0 5.514c2.296 0 4.074.896 5.334 2.688 1.26 1.792 1.89 4.386 1.89 7.782 0 3.396-.63 5.99-1.89 7.782-1.26 1.792-3.038 2.688-5.334 2.688s-4.074-.896-5.334-2.688c-1.26-1.792-1.89-4.386-1.89-7.782 0-3.396.63-5.99 1.89-7.782 1.26-1.792 3.038-2.688 5.334-2.688z"/>
  <path fill="#ff9900" d="M95.569 73.417c0-1.03-.896-1.03-1.559-1.03h-4.167c-.663 0-1.559 0-1.559 1.03v23.043c0 1.03.896 1.03 1.559 1.03h4.167c.663 0 1.559 0 1.559-1.03z"/>
</svg>
