<svg xmlns="http://www.w3.org/2000/svg" viewBox="0 0 128 128">
  <path fill="#2496ED" d="M124.8 52.1c-4.3-2.5-10-2.8-14.8-1.4-.6-5.2-4-9.7-8-12.9l-1.6-1.3-1.4 1.6c-2.7 3.1-3.5 8.3-3.1 12.3.3 2.9 1.2 5.9 3 8.3-1.4.8-2.9 1.9-4.3 2.4-2.8 1-5.9 2-8.9 2H1.2l-.2 1.5c-.5 6.4 1.1 12.9 4.7 18.2 3.5 5.1 8.9 8.5 15.1 9.8 27.7 5.9 57.4-2.8 75.4-23.2 5.5-.3 10.7-2.2 14.8-5.7l1.6-1.3-1.1-1.6c-2.6-3.6-6.2-5.8-10.7-6.2zM13 64h13v13H13V64zm13 0h13v13H26V64zm13 0h13v13H39V64zm13-13h13v13H52V51zm13 0h13v13H65V51zm13 0h13v13H78V51zm-39-13h13v13H39V38zm13 0h13v13H52V38zm13 0h13v13H65V38zm0-13h13v13H65V25z"/>
</svg>
