<svg xmlns="http://www.w3.org/2000/svg" viewBox="0 0 128 128">
  <path fill="#F05032" d="M124.7 58.7L69.3 3.3c-4.4-4.4-11.5-4.4-15.9 0L41.1 15.6l13.4 13.4c4.7-1.6 10.1-.5 13.9 3.3 3.8 3.8 4.9 9.3 3.3 14l12.9 12.9c4.7-1.6 10.1-.5 13.9 3.3 5.3 5.3 5.3 13.8 0 19.1-5.3 5.3-13.8 5.3-19.1 0-4-4-5-9.9-3-14.9l-12-12v31.7c1.3.6 2.5 1.5 3.5 2.5 5.3 5.3 5.3 13.8 0 19.1-5.3 5.3-13.8 5.3-19.1 0-5.3-5.3-5.3-13.8 0-19.1 1.3-1.3 2.8-2.3 4.5-2.9V49.1c-1.6-.6-3.2-1.6-4.5-2.9-4-4-5.1-10-3-15l-13.2-13.2L3.3 53.4c-4.4 4.4-4.4 11.5 0 15.9l55.4 55.4c4.4 4.4 11.5 4.4 15.9 0l55.1-55.1c4.4-4.3 4.4-11.4 0-15.9z"/>
</svg>
