<svg xmlns="http://www.w3.org/2000/svg" viewBox="0 0 128 128">
  <defs>
    <linearGradient id="grafana-grad" x1="0%" y1="0%" x2="100%" y2="100%">
      <stop offset="0%" style="stop-color:#F46800;stop-opacity:1" />
      <stop offset="100%" style="stop-color:#FFF100;stop-opacity:1" />
    </linearGradient>
  </defs>
  <circle fill="url(#grafana-grad)" cx="64" cy="64" r="54"/>
  <path fill="#000000" d="M64 20c-24.3 0-44 19.7-44 44s19.7 44 44 44 44-19.7 44-44-19.7-44-44-44zm0 78c-18.8 0-34-15.2-34-34s15.2-34 34-34 34 15.2 34 34-15.2 34-34 34z"/>
  <path fill="#FFFFFF" d="M64 40v48M40 64h48M52 52l24 24M52 76l24-24"/>
</svg>
