<svg xmlns="http://www.w3.org/2000/svg" viewBox="0 0 128 128">
  <defs>
    <linearGradient id="k8s-grad" x1="0%" y1="0%" x2="100%" y2="100%">
      <stop offset="0%" style="stop-color:#326CE5;stop-opacity:1" />
      <stop offset="100%" style="stop-color:#4B8BF5;stop-opacity:1" />
    </linearGradient>
  </defs>
  <path fill="url(#k8s-grad)" d="M64 10l-54 31.18v62.36L64 135l54-31.18V41.18L64 10z"/>
  <path fill="#FFFFFF" d="M64 20l-48 27.71v55.42L64 130.84l48-27.71V47.71L64 20z"/>
  <g fill="#326CE5">
    <path d="M64 35c-2.2 0-4 1.8-4 4v12l-10.4 6c-1.9 1.1-2.5 3.5-1.4 5.4 1.1 1.9 3.5 2.5 5.4 1.4L64 57.2l10.4 6c1.9 1.1 4.3.5 5.4-1.4 1.1-1.9.5-4.3-1.4-5.4L68 50.2V39c0-2.2-1.8-4-4-4z"/>
    <circle cx="64" cy="64" r="8"/>
    <path d="M64 75c-1.5 0-2.9.3-4.2.9l-9-5.2c-1.9-1.1-4.3-.5-5.4 1.4-1.1 1.9-.5 4.3 1.4 5.4l9 5.2c-.5 1.3-.8 2.7-.8 4.2 0 6.1 4.9 11 11 11s11-4.9 11-11c0-1.5-.3-2.9-.8-4.2l9-5.2c1.9-1.1 2.5-3.5 1.4-5.4-1.1-1.9-3.5-2.5-5.4-1.4l-9 5.2c-1.3-.6-2.7-.9-4.2-.9z"/>
  </g>
  <path fill="#326CE5" d="M64 58c-3.3 0-6 2.7-6 6s2.7 6 6 6 6-2.7 6-6-2.7-6-6-6zm0 8c-1.1 0-2-.9-2-2s.9-2 2-2 2 .9 2 2-.9 2-2 2z"/>
</svg>
