<svg xmlns="http://www.w3.org/2000/svg" viewBox="0 0 128 128">
  <circle fill="#DD4814" cx="64" cy="64" r="60"/>
  <g fill="#FFFFFF">
    <circle cx="64" cy="64" r="35"/>
    <path d="M64 20c-3.5 0-6.3 2.8-6.3 6.3 0 3.5 2.8 6.3 6.3 6.3s6.3-2.8 6.3-6.3c0-3.5-2.8-6.3-6.3-6.3z"/>
    <path d="M95.4 64c0-3.5 2.8-6.3 6.3-6.3 3.5 0 6.3 2.8 6.3 6.3s-2.8 6.3-6.3 6.3c-3.5 0-6.3-2.8-6.3-6.3z"/>
    <path d="M20 64c0-3.5 2.8-6.3 6.3-6.3 3.5 0 6.3 2.8 6.3 6.3s-2.8 6.3-6.3 6.3c-3.5 0-6.3-2.8-6.3-6.3z"/>
    <path d="M86.5 41.5c-2.5-2.5-2.5-6.5 0-9s6.5-2.5 9 0 2.5 6.5 0 9-6.5 2.5-9 0z"/>
    <path d="M32.5 41.5c-2.5-2.5-2.5-6.5 0-9s6.5-2.5 9 0 2.5 6.5 0 9-6.5 2.5-9 0z"/>
    <path d="M86.5 86.5c-2.5-2.5-2.5-6.5 0-9s6.5-2.5 9 0 2.5 6.5 0 9-6.5 2.5-9 0z"/>
    <path d="M32.5 86.5c-2.5-2.5-2.5-6.5 0-9s6.5-2.5 9 0 2.5 6.5 0 9-6.5 2.5-9 0z"/>
  </g>
  <circle fill="#DD4814" cx="64" cy="64" r="20"/>
</svg>
